<svg width="0" height="0" class="hidden">
  <symbol viewBox="0 0 25 24" xmlns="http://www.w3.org/2000/svg" id="star">
    <path fill-rule="evenodd" clip-rule="evenodd" d="M12.647 0c1.24 2.687 2.479 5.343 3.718 8l8.474 1.164c-2.075 2.06-4.122 4.09-6.197 6.12.519 2.925 1.038 5.82 1.556 8.716-2.507-1.403-5.044-2.806-7.551-4.209L5.124 24c.519-2.895 1.038-5.791 1.556-8.716-2.075-2.03-4.15-4.06-6.197-6.12L8.957 8c1.24-2.657 2.48-5.313 3.69-8z"></path>
  </symbol>
  <symbol viewBox="0 0 17 17" fill="none" xmlns="http://www.w3.org/2000/svg" id="calendar">
    <rect x=".5" y=".5" width="16" height="16" rx="1.5" stroke="#5A5A5A"></rect>
    <path fill="#5A5A5A" d="M3.238 3.238h2.429v2.429H3.238zm4.048 0h2.429v2.429H7.286zm4.047 0h2.429v2.429h-2.429zM3.238 7.286h2.429v2.429H3.238zm4.048 0h2.429v2.429H7.286zm4.047 0h2.429v2.429h-2.429zm-8.095 4.047h2.429v2.429H3.238zm4.048 0h2.429v2.429H7.286zm4.047 0h2.429v2.429h-2.429z"></path>
  </symbol>
</svg>
